/* XPM */
static char * close_inactive_xpm[] = {
"34 28 4 1",
" 	c None",
".	c #606060",
"+	c #C6C6C6",
"@	c #7E7E7E",
"..................................",
"..................................",
"..................................",
"..................................",
"..................................",
"..................................",
"..................................",
"..................................",
"............+@......@+............",
"............@+@....@+@............",
".............@+@..@+@.............",
"..............@+@@+@..............",
"...............@++@...............",
"...............@++@...............",
"..............@+@@+@..............",
".............@+@..@+@.............",
"............@+@....@+@............",
"............+@......@+............",
"..................................",
"..................................",
"..................................",
"..................................",
"..................................",
"..................................",
"..................................",
"..................................",
"..................................",
".................................."};
