/* XPM */
static char * close_active_xpm[] = {
"34 28 5 1",
" 	c None",
".	c #308CC6",
"+	c #FFFFFF",
"@	c #CEE2EF",
"#	c #4497CB",
"..................................",
"..................................",
"..................................",
"..................................",
"..................................",
"..................................",
"..................................",
"..................................",
"..................................",
"............+@#....#@+............",
"............@+@#..#@+@............",
"............#@+@##@+@#............",
".............#@+@@+@#.............",
"..............#@++@#..............",
"..............#@++@#..............",
".............#@+@@+@#.............",
"............#@+@##@+@#............",
"............@+@#..#@+@............",
"............+@#....#@+............",
"..................................",
"..................................",
"..................................",
"..................................",
"..................................",
"..................................",
"..................................",
"..................................",
".................................."};
