/* XPM */
static char * maximize_prelight_xpm[] = {
"34 28 3 1",
" 	c None",
".	c #359DDE",
"+	c #F5F5F5",
"..................................",
"..................................",
"..................................",
"..................................",
"..................................",
"..................................",
"..................................",
"..................................",
"..................................",
"............++++++++++............",
"............++++++++++............",
"............++......++............",
"............++......++............",
"............++......++............",
"............++......++............",
"............++......++............",
"............++......++............",
"............++++++++++............",
"............++++++++++............",
"..................................",
"..................................",
"..................................",
"..................................",
"..................................",
"..................................",
"..................................",
"..................................",
".................................."};
