/* XPM */
static char * maximize_toggled_inactive_xpm[] = {
"34 28 3 1",
" 	c None",
".	c #606060",
"+	c #C6C6C6",
"..................................",
"..................................",
"..................................",
"..................................",
"..................................",
"..................................",
"..................................",
"..................................",
"..................................",
"...............+++++++............",
"...............+++++++............",
"....................++............",
"............+++++++.++............",
"............+++++++.++............",
"............++...++.++............",
"............++...++.++............",
"............++...++...............",
"............+++++++...............",
"............+++++++...............",
"..................................",
"..................................",
"..................................",
"..................................",
"..................................",
"..................................",
"..................................",
"..................................",
".................................."};
