/* XPM */
static char * maximize_prelight_xpm[] = {
"34 28 3 1",
" 	c None",
".	c #4F98C6",
"+	c #F5F5F5",
"..................................",
"..................................",
"..................................",
"..................................",
"..................................",
"..................................",
"..................................",
"..................................",
"..................................",
"............++++++++++............",
"............+........+............",
"............+........+............",
"............+........+............",
"............+........+............",
"............+........+............",
"............+........+............",
"............+........+............",
"............+........+............",
"............++++++++++............",
"..................................",
"..................................",
"..................................",
"..................................",
"..................................",
"..................................",
"..................................",
"..................................",
".................................."};
