<?xml version="1.0" encoding="UTF-8" standalone="no"?>
<svg
   xmlns:dc="http://purl.org/dc/elements/1.1/"
   xmlns:cc="http://creativecommons.org/ns#"
   xmlns:rdf="http://www.w3.org/1999/02/22-rdf-syntax-ns#"
   xmlns:svg="http://www.w3.org/2000/svg"
   xmlns="http://www.w3.org/2000/svg"
   xmlns:sodipodi="http://sodipodi.sourceforge.net/DTD/sodipodi-0.dtd"
   xmlns:inkscape="http://www.inkscape.org/namespaces/inkscape"
   height="32"
   width="32"
   version="1.1"
   id="svg25"
   sodipodi:docname="close-window.svg"
   inkscape:version="1.0 (4035a4f, 2020-05-01)">
  <metadata
     id="metadata29">
    <rdf:RDF>
      <cc:Work
         rdf:about="">
        <dc:format>image/svg+xml</dc:format>
        <dc:type
           rdf:resource="http://purl.org/dc/dcmitype/StillImage" />
      </cc:Work>
    </rdf:RDF>
  </metadata>
  <sodipodi:namedview
     pagecolor="#ffffff"
     bordercolor="#666666"
     borderopacity="1"
     objecttolerance="10"
     gridtolerance="10"
     guidetolerance="10"
     inkscape:pageopacity="0"
     inkscape:pageshadow="2"
     inkscape:window-width="1920"
     inkscape:window-height="1022"
     id="namedview27"
     showgrid="false"
     inkscape:zoom="14.75"
     inkscape:cx="7.1061266"
     inkscape:cy="20.440448"
     inkscape:current-layer="g23"
     inkscape:document-rotation="0"
     inkscape:window-x="0"
     inkscape:window-y="0"
     inkscape:window-maximized="1" />
  <defs
     id="defs13">
    <filter
       id="b"
       width="1.426"
       y="-.21306"
       x="-.21298"
       height="1.4261"
       color-interpolation-filters="sRGB">
      <feGaussianBlur
         stdDeviation="0.71020915"
         id="feGaussianBlur2" />
    </filter>
    <radialGradient
       id="d"
       gradientUnits="userSpaceOnUse"
       cy="5.8191"
       cx="7.6583"
       gradientTransform="matrix(1.4402,0,0,1.4461,4.7538969,1.8907466)"
       r="8.6929">
      <stop
         stop-color="#7b7b7b"
         offset="0"
         id="stop5" />
      <stop
         stop-color="#101010"
         offset="1"
         id="stop7" />
    </radialGradient>
    <filter
       id="filter4202"
       style="color-interpolation-filters:sRGB"
       height="1.336"
       width="1.336"
       y="-0.168"
       x="-0.168">
      <feGaussianBlur
         stdDeviation="1.64206"
         id="feGaussianBlur10" />
    </filter>
  </defs>
  <g
     transform="translate(0,1.415)"
     id="g23">
    <rect
       y="2.71"
       x="4.007"
       height="24"
       width="24"
       id="rect903"
       style="opacity:0.997;fill:#e84b3c;fill-opacity:1;stroke:none;stroke-width:1.06226" />
    <path
       fill="#ffffff"
       d="m 12.002,10.626 h 1 c 0.01031,-1.2e-4 0.02079,-4.59e-4 0.03125,0 0.25495,0.01121 0.50986,0.12858 0.6875,0.3125 l 2.2811,2.2811 2.3125,-2.2811 c 0.26562,-0.2305 0.44667,-0.3055 0.6875,-0.3125 h 1 v 1 c 0,0.28647 -0.03435,0.55065 -0.25,0.74999 l -2.2811,2.2811 2.25,2.25 c 0.18818,0.18817 0.28124,0.45345 0.28124,0.71875 v 1 h -1 c -0.26529,-1.1e-5 -0.53058,-0.0931 -0.71874,-0.28124 l -2.2798,-2.2798 -2.2818,2.2811 c -0.18824,0.18838 -0.45348,0.2805 -0.71885,0.2805 h -0.9999 v -1 c -3e-6,-0.26529 0.09306,-0.53058 0.28124,-0.71875 l 2.2811,-2.2495 -2.2811,-2.2811 c -0.21,-0.194 -0.302,-0.468 -0.28,-0.749 v -1 z"
       id="path21"
       style="stroke:none" />
  </g>
</svg>
